# xmcd
#
# Track frame offsets:
#	150
#	12078
#	26824
#	44549
#	62993
#	82318
#	97909
#	115419
#	132799
#	149202
#	165992
#
# Disc length: 2465 seconds
# Revision: 1
# Processed by: cddbd v1.5.2PL0 Copyright (c) Steve Scherf et al.
# Submitted via: dBpowerAMP V12.0
#
DISCID=9b099f0b
DTITLE=JJ Thames - Tell You What I Know
DYEAR=2014
DGENRE=Blues
TTITLE0=Souled Out
TTITLE1=Hey You
TTITLE2=I Got What You Need
TTITLE3=My Kinda Man
TTITLE4=No Turning Back
TTITLE5=Can You Let Somebody
TTITLE6=I'ma Make It
TTITLE7=I Believe
TTITLE8=Just Enough
TTITLE9=Rhinestones
TTITLE10=Tell You What I Know
EXTD=
EXTT0=
EXTT1=
EXTT2=
EXTT3=
EXTT4=
EXTT5=
EXTT6=
EXTT7=
EXTT8=
EXTT9=
EXTT10=
PLAYORDER=
